{
  "accessors": [
    {
      "bufferView": 2,
      "componentType": 5126,
      "count": 11013,
      "max": [
        15.520092010498047,
        1.0680530071258545,
        0.9497678875923157
      ],
      "min": [
        -12.782672882080078,
        -1.0680530071258545,
        -8.597758293151855
      ],
      "type": "VEC3"
    },
    {
      "bufferView": 2,
      "byteOffset": 132156,
      "componentType": 5126,
      "count": 11013,
      "max": [
        1.0,
        1.0,
        1.0
      ],
      "min": [
        -1.0,
        -1.0,
        -0.9999707341194153
      ],
      "type": "VEC3"
    },
    {
      "bufferView": 1,
      "componentType": 5126,
      "count": 11013,
      "max": [
        0.875,
        1.0
      ],
      "min": [
        0.125,
        0.0
      ],
      "type": "VEC2"
    },
    {
      "bufferView": 0,
      "componentType": 5125,
      "count": 56448,
      "type": "SCALAR"
    },
    {
      "bufferView": 2,
      "byteOffset": 264312,
      "componentType": 5126,
      "count": 384,
      "max": [
        14.765970230102539,
        0.8506073951721191,
        -0.8898405432701111
      ],
      "min": [
        14.267777442932129,
        -0.8506125807762146,
        -7.778420925140381
      ],
      "type": "VEC3"
    },
    {
      "bufferView": 2,
      "byteOffset": 268920,
      "componentType": 5126,
      "count": 384,
      "max": [
        0.9987852573394775,
        0.09790164977312088,
        0.0009875567629933357
      ],
      "min": [
        -0.995245099067688,
        -0.09738707542419434,
        -0.0017813672311604023
      ],
      "type": "VEC3"
    },
    {
      "bufferView": 1,
      "byteOffset": 88104,
      "componentType": 5126,
      "count": 384,
      "max": [
        0.2812500596046448,
        0.7343751192092896
      ],
      "min": [
        0.25,
        0.515625
      ],
      "type": "VEC2"
    },
    {
      "bufferView": 0,
      "byteOffset": 225792,
      "componentType": 5125,
      "count": 1128,
      "type": "SCALAR"
    },
    {
      "bufferView": 2,
      "byteOffset": 273528,
      "componentType": 5126,
      "count": 160,
      "max": [
        12.216567039489746,
        0.37915390729904175,
        -11.456165313720703
      ],
      "min": [
        1.6206026077270508,
        -0.4044243395328522,
        -14.637310028076172
      ],
      "type": "VEC3"
    },
    {
      "bufferView": 2,
      "byteOffset": 275448,
      "componentType": 5126,
      "count": 160,
      "max": [
        1.0,
        1.0,
        1.0
      ],
      "min": [
        -9.266376110872443e-08,
        -1.0,
        -1.0
      ],
      "type": "VEC3"
    },
    {
      "bufferView": 1,
      "byteOffset": 91176,
      "componentType": 5126,
      "count": 160,
      "max": [
        0.75,
        1.0
      ],
      "min": [
        0.25,
        0.5
      ],
      "type": "VEC2"
    },
    {
      "bufferView": 0,
      "byteOffset": 230304,
      "componentType": 5125,
      "count": 444,
      "type": "SCALAR"
    },
    {
      "bufferView": 2,
      "byteOffset": 277368,
      "componentType": 5126,
      "count": 8539,
      "max": [
        13.346227645874023,
        0.9903314709663391,
        7.4268341064453125
      ],
      "min": [
        -23.710411071777344,
        -1.0074535608291626,
        -20.60910415649414
      ],
      "type": "VEC3"
    },
    {
      "bufferView": 2,
      "byteOffset": 379836,
      "componentType": 5126,
      "count": 8539,
      "max": [
        1.0,
        1.0,
        1.0
      ],
      "min": [
        -1.0,
        -1.0,
        -1.0
      ],
      "type": "VEC3"
    },
    {
      "bufferView": 1,
      "byteOffset": 92456,
      "componentType": 5126,
      "count": 8539,
      "max": [
        1.0,
        1.0
      ],
      "min": [
        0.0,
        0.0
      ],
      "type": "VEC2"
    },
    {
      "bufferView": 0,
      "byteOffset": 232080,
      "componentType": 5125,
      "count": 45816,
      "type": "SCALAR"
    },
    {
      "bufferView": 2,
      "byteOffset": 482304,
      "componentType": 5126,
      "count": 3717,
      "max": [
        11.147427558898926,
        0.7812793850898743,
        -8.472487449645996
      ],
      "min": [
        4.484490394592285,
        -0.7422239184379578,
        -13.25764274597168
      ],
      "type": "VEC3"
    },
    {
      "bufferView": 2,
      "byteOffset": 526908,
      "componentType": 5126,
      "count": 3717,
      "max": [
        0.8301841020584106,
        1.0,
        1.0
      ],
      "min": [
        -0.83017897605896,
        -1.0,
        -1.0
      ],
      "type": "VEC3"
    },
    {
      "bufferView": 1,
      "byteOffset": 160768,
      "componentType": 5126,
      "count": 3717,
      "max": [
        1.0,
        1.0
      ],
      "min": [
        0.0,
        0.0
      ],
      "type": "VEC2"
    },
    {
      "bufferView": 0,
      "byteOffset": 415344,
      "componentType": 5125,
      "count": 17280,
      "type": "SCALAR"
    },
    {
      "bufferView": 2,
      "byteOffset": 571512,
      "componentType": 5126,
      "count": 1663,
      "max": [
        11.30848503112793,
        0.25856760144233704,
        -6.2573981285095215
      ],
      "min": [
        10.061816215515137,
        -0.27500173449516296,
        -15.807632446289063
      ],
      "type": "VEC3"
    },
    {
      "bufferView": 2,
      "byteOffset": 591468,
      "componentType": 5126,
      "count": 1663,
      "max": [
        0.9999909996986389,
        0.9999999403953552,
        0.9999997019767761
      ],
      "min": [
        -0.9998813271522522,
        -1.0,
        -0.9954324960708618
      ],
      "type": "VEC3"
    },
    {
      "bufferView": 1,
      "byteOffset": 190504,
      "componentType": 5126,
      "count": 1663,
      "max": [
        0.875,
        1.0
      ],
      "min": [
        0.125,
        0.0
      ],
      "type": "VEC2"
    },
    {
      "bufferView": 0,
      "byteOffset": 484464,
      "componentType": 5125,
      "count": 9216,
      "type": "SCALAR"
    },
    {
      "bufferView": 2,
      "byteOffset": 611424,
      "componentType": 5126,
      "count": 16296,
      "max": [
        13.912798881530762,
        0.6630134582519531,
        -0.4602794647216797
      ],
      "min": [
        4.258831977844238,
        -0.6626617908477783,
        -7.757330894470215
      ],
      "type": "VEC3"
    },
    {
      "bufferView": 2,
      "byteOffset": 806976,
      "componentType": 5126,
      "count": 16296,
      "max": [
        0.9067078828811646,
        1.0,
        1.0
      ],
      "min": [
        -0.9067161083221436,
        -1.0,
        -1.0
      ],
      "type": "VEC3"
    },
    {
      "bufferView": 1,
      "byteOffset": 203808,
      "componentType": 5126,
      "count": 16296,
      "max": [
        1.0,
        1.0
      ],
      "min": [
        0.0,
        0.0
      ],
      "type": "VEC2"
    },
    {
      "bufferView": 0,
      "byteOffset": 521328,
      "componentType": 5125,
      "count": 92160,
      "type": "SCALAR"
    },
    {
      "bufferView": 2,
      "byteOffset": 1002528,
      "componentType": 5126,
      "count": 288,
      "max": [
        9.41828441619873,
        0.7416254281997681,
        4.328385829925537
      ],
      "min": [
        8.080185890197754,
        -0.7356336116790771,
        -0.9896271228790283
      ],
      "type": "VEC3"
    },
    {
      "bufferView": 2,
      "byteOffset": 1005984,
      "componentType": 5126,
      "count": 288,
      "max": [
        1.0,
        0.9999992847442627,
        0.8710448741912842
      ],
      "min": [
        -1.0,
        -0.9999992847442627,
        -0.8710418939590454
      ],
      "type": "VEC3"
    },
    {
      "bufferView": 1,
      "byteOffset": 334176,
      "componentType": 5126,
      "count": 288,
      "max": [
        0.75,
        1.0
      ],
      "min": [
        0.25,
        0.5
      ],
      "type": "VEC2"
    },
    {
      "bufferView": 0,
      "byteOffset": 889968,
      "componentType": 5125,
      "count": 792,
      "type": "SCALAR"
    }
  ],
  "asset": {
    "extras": {
      "author": "Mr A McBride (https://sketchfab.com/lobsterfuric)",
      "license": "CC-BY-4.0 (http://creativecommons.org/licenses/by/4.0/)",
      "source": "https://sketchfab.com/3d-models/nerd-face-emoji-basic-fdbfedde64ea407884eb18774872760e",
      "title": "Nerd Face Emoji basic"
    },
    "generator": "Sketchfab-15.44.0",
    "version": "2.0"
  },
  "bufferViews": [
    {
      "buffer": 0,
      "byteLength": 893136,
      "name": "floatBufferViews",
      "target": 34963
    },
    {
      "buffer": 0,
      "byteLength": 336480,
      "byteOffset": 893136,
      "byteStride": 8,
      "name": "floatBufferViews",
      "target": 34962
    },
    {
      "buffer": 0,
      "byteLength": 1009440,
      "byteOffset": 1229616,
      "byteStride": 12,
      "name": "floatBufferViews",
      "target": 34962
    }
  ],
  "buffers": [
    {
      "byteLength": 2239056,
      "uri": "emoji.bin"
    }
  ],
  "extensionsUsed": [
    "KHR_materials_specular",
    "KHR_materials_transmission"
  ],
  "materials": [
    {
      "doubleSided": true,
      "extensions": {
        "KHR_materials_specular": {
          "specularColorFactor": [
            1.0,
            1.0,
            1.0
          ],
          "specularFactor": 0.3590338489266678
        }
      },
      "name": "glasses",
      "pbrMetallicRoughness": {
        "baseColorFactor": [
          0.041720600000000004,
          0.011038000000000001,
          0.0,
          1.0
        ],
        "metallicFactor": 0.0,
        "roughnessFactor": 0.45866404001488614
      }
    },
    {
      "alphaMode": "BLEND",
      "doubleSided": true,
      "extensions": {
        "KHR_materials_specular": {
          "specularColorFactor": [
            1.0,
            1.0,
            1.0
          ],
          "specularFactor": 1.0
        },
        "KHR_materials_transmission": {
          "transmissionFactor": 0.9448030028374089
        }
      },
      "name": "lens",
      "pbrMetallicRoughness": {
        "baseColorFactor": [
          0.0647873,
          0.8,
          0.715085,
          0.25
        ],
        "metallicFactor": 0.0,
        "roughnessFactor": 0.0
      }
    },
    {
      "doubleSided": true,
      "extensions": {
        "KHR_materials_specular": {
          "specularColorFactor": [
            1.0,
            1.0,
            1.0
          ],
          "specularFactor": 1.0
        }
      },
      "name": "inside_mouth",
      "pbrMetallicRoughness": {
        "baseColorFactor": [
          0.0,
          0.0,
          0.0,
          1.0
        ]
      }
    },
    {
      "doubleSided": true,
      "name": "skin",
      "pbrMetallicRoughness": {
        "baseColorFactor": [
          0.7999999999999999,
          0.493767,
          0.017019200000000016,
          1.0
        ],
        "metallicFactor": 0.0,
        "roughnessFactor": 0.8827292036920981
      }
    },
    {
      "doubleSided": true,
      "name": "spots",
      "pbrMetallicRoughness": {
        "baseColorFactor": [
          0.3163954169106856,
          0.12419587948276484,
          0.0,
          1.0
        ],
        "metallicFactor": 0.0,
        "roughnessFactor": 0.9117486332322298
      }
    },
    {
      "doubleSided": true,
      "extensions": {
        "KHR_materials_specular": {
          "specularColorFactor": [
            1.0,
            1.0,
            1.0
          ],
          "specularFactor": 1.0
        }
      },
      "name": "tooth",
      "pbrMetallicRoughness": {
        "baseColorFactor": [
          0.8,
          0.8,
          0.8,
          1.0
        ],
        "metallicFactor": 0.0,
        "roughnessFactor": 0.0
      }
    },
    {
      "doubleSided": true,
      "extensions": {
        "KHR_materials_specular": {
          "specularColorFactor": [
            1.0,
            1.0,
            1.0
          ],
          "specularFactor": 1.0
        }
      },
      "name": "eyes",
      "pbrMetallicRoughness": {
        "baseColorFactor": [
          0.0,
          0.0,
          0.0,
          1.0
        ],
        "metallicFactor": 0.0,
        "roughnessFactor": 0.0
      }
    },
    {
      "doubleSided": true,
      "extensions": {
        "KHR_materials_specular": {
          "specularColorFactor": [
            1.0,
            1.0,
            1.0
          ],
          "specularFactor": 0.0
        }
      },
      "name": "eyebrows",
      "pbrMetallicRoughness": {
        "baseColorFactor": [
          0.0,
          0.0,
          0.0,
          1.0
        ],
        "metallicFactor": 0.0
      }
    }
  ],
  "meshes": [
    {
      "name": "Cube_glasses_0",
      "primitives": [
        {
          "attributes": {
            "NORMAL": 1,
            "POSITION": 0,
            "TEXCOORD_0": 2
          },
          "indices": 3,
          "material": 0,
          "mode": 4
        }
      ]
    },
    {
      "name": "Cube_lens_0",
      "primitives": [
        {
          "attributes": {
            "NORMAL": 5,
            "POSITION": 4,
            "TEXCOORD_0": 6
          },
          "indices": 7,
          "material": 1,
          "mode": 4
        }
      ]
    },
    {
      "name": "Cube_inside mouth_0",
      "primitives": [
        {
          "attributes": {
            "NORMAL": 9,
            "POSITION": 8,
            "TEXCOORD_0": 10
          },
          "indices": 11,
          "material": 2,
          "mode": 4
        }
      ]
    },
    {
      "name": "Cube_skin_0",
      "primitives": [
        {
          "attributes": {
            "NORMAL": 13,
            "POSITION": 12,
            "TEXCOORD_0": 14
          },
          "indices": 15,
          "material": 3,
          "mode": 4
        }
      ]
    },
    {
      "name": "Cube_spots_0",
      "primitives": [
        {
          "attributes": {
            "NORMAL": 17,
            "POSITION": 16,
            "TEXCOORD_0": 18
          },
          "indices": 19,
          "material": 4,
          "mode": 4
        }
      ]
    },
    {
      "name": "Cube_tooth_0",
      "primitives": [
        {
          "attributes": {
            "NORMAL": 21,
            "POSITION": 20,
            "TEXCOORD_0": 22
          },
          "indices": 23,
          "material": 5,
          "mode": 4
        }
      ]
    },
    {
      "name": "Cube_eyes_0",
      "primitives": [
        {
          "attributes": {
            "NORMAL": 25,
            "POSITION": 24,
            "TEXCOORD_0": 26
          },
          "indices": 27,
          "material": 6,
          "mode": 4
        }
      ]
    },
    {
      "name": "Cube_eyebrows_0",
      "primitives": [
        {
          "attributes": {
            "NORMAL": 29,
            "POSITION": 28,
            "TEXCOORD_0": 30
          },
          "indices": 31,
          "material": 7,
          "mode": 4
        }
      ]
    }
  ],
  "nodes": [
    {
      "children": [
        1
      ],
      "matrix": [
        0.013928456231951714,
        -6.121080946355241e-17,
        0.9999030232429504,
        0.0,
        0.9999030232429504,
        3.092738561239333e-18,
        -0.013928456231951714,
        0.0,
        -2.2398665460409963e-18,
        1.0,
        6.124793332944379e-17,
        0.0,
        0.0,
        0.0,
        0.0,
        1.0
      ],
      "name": "Sketchfab_model"
    },
    {
      "children": [
        2
      ],
      "matrix": [
        0.009999999776482582,
        0.0,
        0.0,
        0.0,
        0.0,
        0.0,
        0.009999999776482582,
        0.0,
        0.0,
        -0.009999999776482582,
        0.0,
        0.0,
        0.0,
        0.0,
        0.0,
        1.0
      ],
      "name": "d71940cf1e274d58aa89922ed929dfea.fbx"
    },
    {
      "children": [
        3
      ],
      "name": "RootNode"
    },
    {
      "children": [
        4,
        5,
        6,
        7,
        8,
        9,
        10,
        11
      ],
      "matrix": [
        32.91572570800781,
        0.0,
        0.0,
        0.0,
        0.0,
        -9.947110943112449e-05,
        -610.5493164062419,
        0.0,
        0.0,
        43.59547424316349,
        -7.1026042821053765e-06,
        0.0,
        170.5723876953125,
        287.3436279296875,
        -5.226983070373535,
        1.0
      ],
      "name": "Cube"
    },
    {
      "mesh": 0,
      "name": "Cube_glasses_0"
    },
    {
      "mesh": 1,
      "name": "Cube_lens_0"
    },
    {
      "mesh": 2,
      "name": "Cube_inside mouth_0"
    },
    {
      "mesh": 3,
      "name": "Cube_skin_0"
    },
    {
      "mesh": 4,
      "name": "Cube_spots_0"
    },
    {
      "mesh": 5,
      "name": "Cube_tooth_0"
    },
    {
      "mesh": 6,
      "name": "Cube_eyes_0"
    },
    {
      "mesh": 7,
      "name": "Cube_eyebrows_0"
    }
  ],
  "scene": 0,
  "scenes": [
    {
      "name": "Sketchfab_Scene",
      "nodes": [
        0
      ]
    }
  ]
}
