{
  "accessors": [
    {
      "bufferView": 3,
      "componentType": 5126,
      "count": 15972,
      "max": [
        5.8159894943237305,
        16.48843765258789,
        3.5963001251220703
      ],
      "min": [
        -6.092872142791748,
        -0.001349079655483365,
        -4.596376419067383
      ],
      "type": "VEC3"
    },
    {
      "bufferView": 3,
      "byteOffset": 191664,
      "componentType": 5126,
      "count": 15972,
      "max": [
        0.9999645948410034,
        0.9998183846473694,
        0.9999067783355713
      ],
      "min": [
        -0.9999645948410034,
        -0.9998186826705933,
        -0.9999067783355713
      ],
      "type": "VEC3"
    },
    {
      "bufferView": 2,
      "componentType": 5126,
      "count": 15972,
      "max": [
        1.0000087022781372,
        1.1099902391433716
      ],
      "min": [
        -2.884103923861403e-05,
        -0.2276512235403061
      ],
      "type": "VEC2"
    },
    {
      "bufferView": 1,
      "componentType": 5125,
      "count": 18504,
      "type": "SCALAR"
    },
    {
      "bufferView": 3,
      "byteOffset": 383328,
      "componentType": 5126,
      "count": 1920,
      "max": [
        8.062858581542969,
        16.43813705444336,
        6.7467241287231445
      ],
      "min": [
        -7.930422306060791,
        5.789437294006348,
        -6.537495136260986
      ],
      "type": "VEC3"
    },
    {
      "bufferView": 3,
      "byteOffset": 406368,
      "componentType": 5126,
      "count": 1920,
      "max": [
        0.9975990056991577,
        0.999964714050293,
        0.9833955764770508
      ],
      "min": [
        -0.9975990056991577,
        -0.999964714050293,
        -0.9833955764770508
      ],
      "type": "VEC3"
    },
    {
      "bufferView": 2,
      "byteOffset": 127776,
      "componentType": 5126,
      "count": 1920,
      "max": [
        1.0,
        0.47238200902938843
      ],
      "min": [
        0.0,
        0.0
      ],
      "type": "VEC2"
    },
    {
      "bufferView": 1,
      "byteOffset": 74016,
      "componentType": 5125,
      "count": 1920,
      "type": "SCALAR"
    },
    {
      "bufferView": 5,
      "componentType": 5126,
      "count": 10,
      "max": [
        1.0,
        0.07285627722740173,
        0.9929702281951904,
        0.0,
        0.9952149987220764,
        1.0,
        2.2550592504444467e-08,
        0.0,
        0.06652948260307312,
        0.9997631907463074,
        1.0,
        0.0,
        6.5745062828063965,
        4.737011432647705,
        14.41646671295166,
        1.0
      ],
      "min": [
        -0.0010154516203328967,
        -0.9974709153175354,
        -0.9997197389602661,
        0.0,
        -0.9990805387496948,
        -0.039983153343200684,
        -0.9975481629371643,
        0.0,
        -0.04349621385335922,
        -2.788057784641751e-08,
        -0.06918515264987946,
        0.0,
        -15.729533195495605,
        -3.6928858757019043,
        -3.6918084621429443,
        1.0
      ],
      "type": "MAT4"
    },
    {
      "bufferView": 0,
      "componentType": 5123,
      "count": 15972,
      "type": "VEC4"
    },
    {
      "bufferView": 4,
      "componentType": 5126,
      "count": 15972,
      "max": [
        1.0,
        0.0,
        0.0,
        0.0
      ],
      "min": [
        1.0,
        0.0,
        0.0,
        0.0
      ],
      "type": "VEC4"
    },
    {
      "bufferView": 0,
      "byteOffset": 127776,
      "componentType": 5123,
      "count": 1920,
      "type": "VEC4"
    },
    {
      "bufferView": 4,
      "byteOffset": 255552,
      "componentType": 5126,
      "count": 1920,
      "max": [
        1.0,
        0.0,
        0.0,
        0.0
      ],
      "min": [
        1.0,
        0.0,
        0.0,
        0.0
      ],
      "type": "VEC4"
    },
    {
      "bufferView": 6,
      "componentType": 5126,
      "count": 201,
      "max": [
        4.166666507720947
      ],
      "min": [
        0.0
      ],
      "type": "SCALAR"
    },
    {
      "bufferView": 7,
      "componentType": 5126,
      "count": 201,
      "max": [
        0.003449419979006052,
        0.0018759528174996376,
        0.08207912743091583
      ],
      "min": [
        -0.00264688185416162,
        -0.0014866814017295837,
        -0.06304123252630234
      ],
      "type": "VEC3"
    },
    {
      "bufferView": 6,
      "byteOffset": 804,
      "componentType": 5126,
      "count": 171,
      "max": [
        4.166666507720947
      ],
      "min": [
        0.0
      ],
      "type": "SCALAR"
    },
    {
      "bufferView": 7,
      "byteOffset": 2412,
      "componentType": 5126,
      "count": 171,
      "max": [
        -1.4347137212753296,
        10.053955078125,
        -3.1617910861968994
      ],
      "min": [
        -1.4411084651947021,
        10.053955078125,
        -3.384350299835205
      ],
      "type": "VEC3"
    },
    {
      "bufferView": 6,
      "byteOffset": 1488,
      "componentType": 5126,
      "count": 139,
      "max": [
        4.166666507720947
      ],
      "min": [
        0.0
      ],
      "type": "SCALAR"
    },
    {
      "bufferView": 7,
      "byteOffset": 4464,
      "componentType": 5126,
      "count": 139,
      "max": [
        -1.8230721950531006,
        -2.802793264389038,
        -7.569863319396973
      ],
      "min": [
        -1.8230721950531006,
        -2.802793264389038,
        -7.712347030639648
      ],
      "type": "VEC3"
    },
    {
      "bufferView": 6,
      "byteOffset": 2044,
      "componentType": 5126,
      "count": 172,
      "max": [
        4.166666507720947
      ],
      "min": [
        0.0
      ],
      "type": "SCALAR"
    },
    {
      "bufferView": 7,
      "byteOffset": 6132,
      "componentType": 5126,
      "count": 172,
      "max": [
        -6.679680824279785,
        5.228075981140137,
        1.215362787246704
      ],
      "min": [
        -6.679680824279785,
        5.228075981140137,
        1.0912443399429321
      ],
      "type": "VEC3"
    },
    {
      "bufferView": 6,
      "byteOffset": 2732,
      "componentType": 5126,
      "count": 143,
      "max": [
        4.166666507720947
      ],
      "min": [
        0.0
      ],
      "type": "SCALAR"
    },
    {
      "bufferView": 7,
      "byteOffset": 8196,
      "componentType": 5126,
      "count": 143,
      "max": [
        -9.048477172851563,
        5.529993057250977,
        -5.800065517425537
      ],
      "min": [
        -9.048477172851563,
        5.529993057250977,
        -5.957417964935303
      ],
      "type": "VEC3"
    },
    {
      "bufferView": 6,
      "byteOffset": 3304,
      "componentType": 5126,
      "count": 189,
      "max": [
        4.166666507720947
      ],
      "min": [
        0.0
      ],
      "type": "SCALAR"
    },
    {
      "bufferView": 7,
      "byteOffset": 9912,
      "componentType": 5126,
      "count": 189,
      "max": [
        -8.536852836608887,
        2.899162769317627,
        -0.6258054971694946
      ],
      "min": [
        -8.536852836608887,
        2.899162769317627,
        -0.7588493824005127
      ],
      "type": "VEC3"
    },
    {
      "bufferView": 6,
      "byteOffset": 4060,
      "componentType": 5126,
      "count": 137,
      "max": [
        4.166666507720947
      ],
      "min": [
        0.0
      ],
      "type": "SCALAR"
    },
    {
      "bufferView": 7,
      "byteOffset": 12180,
      "componentType": 5126,
      "count": 137,
      "max": [
        -8.26706600189209,
        -0.9391149878501892,
        -7.829580783843994
      ],
      "min": [
        -8.26706600189209,
        -0.943057656288147,
        -7.992993354797363
      ],
      "type": "VEC3"
    },
    {
      "bufferView": 6,
      "byteOffset": 4608,
      "componentType": 5126,
      "count": 161,
      "max": [
        4.166666507720947
      ],
      "min": [
        0.0
      ],
      "type": "SCALAR"
    },
    {
      "bufferView": 7,
      "byteOffset": 13824,
      "componentType": 5126,
      "count": 161,
      "max": [
        -7.955284595489502,
        -0.30378204584121704,
        -2.452482223510742
      ],
      "min": [
        -7.955284595489502,
        -0.30626899003982544,
        -2.5778462886810303
      ],
      "type": "VEC3"
    }
  ],
  "animations": [
    {
      "channels": [
        {
          "sampler": 0,
          "target": {
            "node": 7,
            "path": "translation"
          }
        },
        {
          "sampler": 1,
          "target": {
            "node": 8,
            "path": "translation"
          }
        },
        {
          "sampler": 2,
          "target": {
            "node": 9,
            "path": "translation"
          }
        },
        {
          "sampler": 3,
          "target": {
            "node": 10,
            "path": "translation"
          }
        },
        {
          "sampler": 4,
          "target": {
            "node": 11,
            "path": "translation"
          }
        },
        {
          "sampler": 5,
          "target": {
            "node": 12,
            "path": "translation"
          }
        },
        {
          "sampler": 6,
          "target": {
            "node": 13,
            "path": "translation"
          }
        },
        {
          "sampler": 7,
          "target": {
            "node": 14,
            "path": "translation"
          }
        }
      ],
      "name": "Wind",
      "samplers": [
        {
          "input": 13,
          "interpolation": "LINEAR",
          "output": 14
        },
        {
          "input": 15,
          "interpolation": "LINEAR",
          "output": 16
        },
        {
          "input": 17,
          "interpolation": "LINEAR",
          "output": 18
        },
        {
          "input": 19,
          "interpolation": "LINEAR",
          "output": 20
        },
        {
          "input": 21,
          "interpolation": "LINEAR",
          "output": 22
        },
        {
          "input": 23,
          "interpolation": "LINEAR",
          "output": 24
        },
        {
          "input": 25,
          "interpolation": "LINEAR",
          "output": 26
        },
        {
          "input": 27,
          "interpolation": "LINEAR",
          "output": 28
        }
      ]
    }
  ],
  "asset": {
    "extras": {
      "author": "fortnight123 (https://sketchfab.com/fortnight123)",
      "license": "CC-BY-4.0 (http://creativecommons.org/licenses/by/4.0/)",
      "source": "https://sketchfab.com/3d-models/lowpolytree01-cbec08c9987c40c5b124e98ca327b304",
      "title": "LowPolyTree01"
    },
    "generator": "Sketchfab-12.68.0",
    "version": "2.0"
  },
  "bufferViews": [
    {
      "buffer": 0,
      "byteLength": 143136,
      "byteStride": 8,
      "name": "shortBufferViews",
      "target": 34962
    },
    {
      "buffer": 0,
      "byteLength": 81696,
      "byteOffset": 143136,
      "name": "floatBufferViews",
      "target": 34963
    },
    {
      "buffer": 0,
      "byteLength": 143136,
      "byteOffset": 224832,
      "byteStride": 8,
      "name": "floatBufferViews",
      "target": 34962
    },
    {
      "buffer": 0,
      "byteLength": 429408,
      "byteOffset": 367968,
      "byteStride": 12,
      "name": "floatBufferViews",
      "target": 34962
    },
    {
      "buffer": 0,
      "byteLength": 286272,
      "byteOffset": 797376,
      "byteStride": 16,
      "name": "floatBufferViews",
      "target": 34962
    },
    {
      "buffer": 0,
      "byteLength": 640,
      "byteOffset": 1083648,
      "name": "floatBufferViews"
    },
    {
      "buffer": 0,
      "byteLength": 5252,
      "byteOffset": 1084288,
      "name": "floatBufferViews"
    },
    {
      "buffer": 0,
      "byteLength": 15756,
      "byteOffset": 1089540,
      "byteStride": 12,
      "name": "floatBufferViews"
    }
  ],
  "buffers": [
    {
      "byteLength": 1105296,
      "uri": "tree.bin"
    }
  ],
  "materials": [
    {
      "doubleSided": true,
      "name": "Trunk",
      "pbrMetallicRoughness": {
        "baseColorFactor": [
          0.129886,
          0.129886,
          0.129886,
          1.0
        ],
        "metallicFactor": 0.0,
        "roughnessFactor": 0.9681845575268864
      }
    },
    {
      "doubleSided": true,
      "name": "Leaf",
      "pbrMetallicRoughness": {
        "baseColorFactor": [
          0.15144,
          0.441158,
          0.143014,
          1.0
        ],
        "metallicFactor": 0.0,
        "roughnessFactor": 0.9199402790964494
      }
    }
  ],
  "meshes": [
    {
      "name": "tree_Trunk_0",
      "primitives": [
        {
          "attributes": {
            "JOINTS_0": 9,
            "NORMAL": 1,
            "POSITION": 0,
            "TEXCOORD_0": 2,
            "WEIGHTS_0": 10
          },
          "indices": 3,
          "material": 0,
          "mode": 4
        }
      ]
    },
    {
      "name": "tree_Leaf_0",
      "primitives": [
        {
          "attributes": {
            "JOINTS_0": 11,
            "NORMAL": 5,
            "POSITION": 4,
            "TEXCOORD_0": 6,
            "WEIGHTS_0": 12
          },
          "indices": 7,
          "material": 1,
          "mode": 4
        }
      ]
    }
  ],
  "nodes": [
    {
      "children": [
        1
      ],
      "matrix": [
        1.0,
        0.0,
        0.0,
        0.0,
        0.0,
        2.220446049250313e-16,
        -1.0,
        0.0,
        0.0,
        1.0,
        2.220446049250313e-16,
        0.0,
        0.0,
        0.0,
        0.0,
        1.0
      ],
      "name": "Sketchfab_model"
    },
    {
      "children": [
        2
      ],
      "matrix": [
        1.0,
        0.0,
        0.0,
        0.0,
        0.0,
        0.0,
        1.0,
        0.0,
        0.0,
        -1.0,
        0.0,
        0.0,
        0.0,
        0.0,
        0.0,
        1.0
      ],
      "name": "0ec05a5d101b44e68ca755c117f0507b.fbx"
    },
    {
      "children": [
        3
      ],
      "name": "Object_2"
    },
    {
      "children": [
        4,
        19
      ],
      "name": "RootNode"
    },
    {
      "children": [
        5
      ],
      "name": "Armature",
      "rotation": [
        -0.006789365317672491,
        -0.02353477291762829,
        -0.7070741653442383,
        0.7067150473594666
      ],
      "scale": [
        100.0,
        100.0,
        100.0
      ],
      "translation": [
        -376.8872375488281,
        672.2070922851563,
        320.8977355957031
      ]
    },
    {
      "children": [
        6,
        17,
        18,
        16
      ],
      "name": "Object_5"
    },
    {
      "children": [
        7,
        8,
        9,
        10,
        11,
        12,
        13,
        14,
        15
      ],
      "name": "_rootJoint"
    },
    {
      "name": "Bone_00",
      "rotation": [
        0.7071068286895752,
        7.666467598445728e-20,
        7.666466305976021e-20,
        0.7071067094802856
      ]
    },
    {
      "name": "Bone.001_01",
      "rotation": [
        0.5284135341644287,
        0.5083282589912415,
        0.4571029543876648,
        0.5034266710281372
      ],
      "scale": [
        1.0000001192092896,
        1.0000001192092896,
        1.0000001192092896
      ],
      "translation": [
        -1.4376376867294312,
        10.053955078125,
        -3.2433223724365234
      ]
    },
    {
      "name": "Bone.002_02",
      "rotation": [
        0.04719700664281845,
        0.7081726789474487,
        0.7035802602767944,
        0.03519704192876816
      ],
      "scale": [
        1.0,
        1.0000003576278687,
        1.0
      ],
      "translation": [
        -1.8230721950531006,
        -2.802793264389038,
        -7.648487091064453
      ]
    },
    {
      "name": "Bone.003_03",
      "rotation": [
        0.5297739505767822,
        0.5097549557685852,
        0.4555284082889557,
        0.501979410648346
      ],
      "scale": [
        0.9999999403953552,
        1.0,
        1.0
      ],
      "translation": [
        -6.679680824279785,
        5.228075981140137,
        1.1888593435287476
      ]
    },
    {
      "name": "Bone.004_04",
      "rotation": [
        0.05387072265148163,
        0.7094911932945251,
        0.7003694176673889,
        0.05659419670701027
      ],
      "scale": [
        1.0,
        1.0,
        1.0000001192092896
      ],
      "translation": [
        -9.048477172851563,
        5.529993057250977,
        -5.866690158843994
      ]
    },
    {
      "name": "Bone.005_05",
      "rotation": [
        0.05424339696764946,
        0.011669721454381943,
        0.9978222846984863,
        0.035669878125190735
      ],
      "scale": [
        1.000048041343689,
        1.0,
        1.000006914138794
      ],
      "translation": [
        -8.536852836608887,
        2.899162769317627,
        -0.7143153548240662
      ]
    },
    {
      "name": "Bone.006_06",
      "rotation": [
        0.5151025056838989,
        0.4943889081478119,
        0.4720480740070343,
        0.5171263217926025
      ],
      "scale": [
        1.0000001192092896,
        1.0,
        1.0
      ],
      "translation": [
        -8.26706600189209,
        -0.9410030841827393,
        -7.898789405822754
      ]
    },
    {
      "name": "Bone.007_07",
      "rotation": [
        0.045887477695941925,
        0.7394421696662903,
        0.670573890209198,
        0.03808270022273064
      ],
      "scale": [
        1.0,
        1.000000238418579,
        1.0
      ],
      "translation": [
        -7.955284595489502,
        -0.30510106682777405,
        -2.5166256427764893
      ]
    },
    {
      "name": "Bone.008_08",
      "rotation": [
        0.030319267883896828,
        1.9750099333748494e-09,
        0.7064564824104309,
        0.7071067690849304
      ],
      "scale": [
        1.0000001192092896,
        1.0000001192092896,
        1.0
      ],
      "translation": [
        6.574507236480713,
        3.6918087005615234,
        -3.582540512084961
      ]
    },
    {
      "matrix": [
        -100.0000340689379,
        2.5480927201402205e-08,
        7.66143504193906e-09,
        0.0,
        7.661433468895345e-09,
        1.2970772211206999e-07,
        100.00001310556782,
        0.0,
        2.5480924613914982e-08,
        100.0000239533302,
        -1.2970773618440583e-07,
        0.0,
        0.0001015138831803597,
        -0.0002544756856650565,
        -3.001306430405748e-05,
        1.0
      ],
      "name": "Object_16"
    },
    {
      "mesh": 0,
      "name": "Object_17",
      "skin": 0
    },
    {
      "mesh": 1,
      "name": "Object_18",
      "skin": 0
    },
    {
      "name": "tree",
      "rotation": [
        -3.058552877632792e-08,
        0.7071068286895752,
        0.7071067094802856,
        -3.123171055108287e-08
      ],
      "scale": [
        100.0000228881836,
        100.0,
        100.0000228881836
      ],
      "translation": [
        6.342306733131409e-05,
        -0.00017604156164452434,
        7.450580596923828e-06
      ]
    }
  ],
  "scene": 0,
  "scenes": [
    {
      "name": "Sketchfab_Scene",
      "nodes": [
        0
      ]
    }
  ],
  "skins": [
    {
      "inverseBindMatrices": 8,
      "joints": [
        6,
        7,
        8,
        9,
        10,
        11,
        12,
        13,
        14,
        15
      ],
      "skeleton": 6
    }
  ]
}
