{
  "accessors": [
    {
      "bufferView": 2,
      "componentType": 5126,
      "count": 261,
      "max": [
        0.5,
        0.4999999403953552,
        0.5
      ],
      "min": [
        -0.5,
        -0.4999999403953552,
        -0.5
      ],
      "type": "VEC3"
    },
    {
      "bufferView": 2,
      "byteOffset": 3132,
      "componentType": 5126,
      "count": 261,
      "max": [
        0.999161958694458,
        1.0,
        0.9984109401702881
      ],
      "min": [
        -0.999161958694458,
        -1.0,
        -0.9984848499298096
      ],
      "type": "VEC3"
    },
    {
      "bufferView": 1,
      "componentType": 5126,
      "count": 261,
      "max": [
        0.875,
        0.9434331059455872
      ],
      "min": [
        0.125,
        0.0
      ],
      "type": "VEC2"
    },
    {
      "bufferView": 0,
      "componentType": 5125,
      "count": 960,
      "type": "SCALAR"
    },
    {
      "bufferView": 2,
      "byteOffset": 6264,
      "componentType": 5126,
      "count": 259,
      "max": [
        1.0,
        1.5569024085998535,
        0.9945217967033386
      ],
      "min": [
        -0.978147566318512,
        -0.310833215713501,
        -0.9945217967033386
      ],
      "type": "VEC3"
    },
    {
      "bufferView": 2,
      "byteOffset": 9372,
      "componentType": 5126,
      "count": 259,
      "max": [
        1.0,
        1.0,
        0.994521975517273
      ],
      "min": [
        -1.0,
        -5.099695599142251e-08,
        -0.994521975517273
      ],
      "type": "VEC3"
    },
    {
      "bufferView": 1,
      "byteOffset": 2088,
      "componentType": 5126,
      "count": 259,
      "max": [
        0.65625,
        0.9991440176963806
      ],
      "min": [
        0.34716445207595825,
        0.442042738199234
      ],
      "type": "VEC2"
    },
    {
      "bufferView": 0,
      "byteOffset": 3840,
      "componentType": 5125,
      "count": 1035,
      "type": "SCALAR"
    },
    {
      "bufferView": 2,
      "byteOffset": 12480,
      "componentType": 5126,
      "count": 259,
      "max": [
        1.0,
        1.5569024085998535,
        0.9945217967033386
      ],
      "min": [
        -0.978147566318512,
        -0.310833215713501,
        -0.9945217967033386
      ],
      "type": "VEC3"
    },
    {
      "bufferView": 2,
      "byteOffset": 15588,
      "componentType": 5126,
      "count": 259,
      "max": [
        1.0,
        1.0,
        0.994521975517273
      ],
      "min": [
        -1.0,
        -5.099695599142251e-08,
        -0.994521975517273
      ],
      "type": "VEC3"
    },
    {
      "bufferView": 1,
      "byteOffset": 4160,
      "componentType": 5126,
      "count": 259,
      "max": [
        0.65625,
        0.9991440176963806
      ],
      "min": [
        0.34716445207595825,
        0.442042738199234
      ],
      "type": "VEC2"
    },
    {
      "bufferView": 0,
      "byteOffset": 7980,
      "componentType": 5125,
      "count": 1035,
      "type": "SCALAR"
    },
    {
      "bufferView": 2,
      "byteOffset": 18696,
      "componentType": 5126,
      "count": 175,
      "max": [
        0.5,
        0.5,
        0.5
      ],
      "min": [
        -0.5,
        -0.48827195167541504,
        -0.5
      ],
      "type": "VEC3"
    },
    {
      "bufferView": 2,
      "byteOffset": 20796,
      "componentType": 5126,
      "count": 175,
      "max": [
        1.0,
        1.0,
        1.0
      ],
      "min": [
        -1.0,
        -1.0,
        -1.0
      ],
      "type": "VEC3"
    },
    {
      "bufferView": 1,
      "byteOffset": 6232,
      "componentType": 5126,
      "count": 175,
      "max": [
        0.8250049948692322,
        0.708991289138794
      ],
      "min": [
        0.17499500513076782,
        0.038684651255607605
      ],
      "type": "VEC2"
    },
    {
      "bufferView": 0,
      "byteOffset": 12120,
      "componentType": 5125,
      "count": 636,
      "type": "SCALAR"
    },
    {
      "bufferView": 2,
      "byteOffset": 22896,
      "componentType": 5126,
      "count": 552,
      "max": [
        1.0,
        1.0,
        1.0
      ],
      "min": [
        -1.0,
        -1.0,
        -1.0
      ],
      "type": "VEC3"
    },
    {
      "bufferView": 2,
      "byteOffset": 29520,
      "componentType": 5126,
      "count": 552,
      "max": [
        0.9582090973854065,
        0.9908391833305359,
        0.9582090973854065
      ],
      "min": [
        -0.9582090973854065,
        -0.9908391833305359,
        -0.9582090973854065
      ],
      "type": "VEC3"
    },
    {
      "bufferView": 1,
      "byteOffset": 7632,
      "componentType": 5126,
      "count": 552,
      "max": [
        0.9999998807907104,
        1.0
      ],
      "min": [
        0.0,
        0.0
      ],
      "type": "VEC2"
    },
    {
      "bufferView": 0,
      "byteOffset": 14664,
      "componentType": 5125,
      "count": 792,
      "type": "SCALAR"
    },
    {
      "bufferView": 2,
      "byteOffset": 36144,
      "componentType": 5126,
      "count": 552,
      "max": [
        1.0,
        1.0,
        1.0
      ],
      "min": [
        -1.0,
        -1.0,
        -1.0
      ],
      "type": "VEC3"
    },
    {
      "bufferView": 2,
      "byteOffset": 42768,
      "componentType": 5126,
      "count": 552,
      "max": [
        0.9582090973854065,
        0.9908391833305359,
        0.9582090973854065
      ],
      "min": [
        -0.9582090973854065,
        -0.9908391833305359,
        -0.9582090973854065
      ],
      "type": "VEC3"
    },
    {
      "bufferView": 1,
      "byteOffset": 12048,
      "componentType": 5126,
      "count": 552,
      "max": [
        0.9999998807907104,
        1.0
      ],
      "min": [
        0.0,
        0.0
      ],
      "type": "VEC2"
    },
    {
      "bufferView": 0,
      "byteOffset": 17832,
      "componentType": 5125,
      "count": 792,
      "type": "SCALAR"
    },
    {
      "bufferView": 2,
      "byteOffset": 49392,
      "componentType": 5126,
      "count": 262,
      "max": [
        1.0,
        1.000000238418579,
        0.8932327628135681
      ],
      "min": [
        -1.0,
        -1.0,
        -1.0000004768371582
      ],
      "type": "VEC3"
    },
    {
      "bufferView": 2,
      "byteOffset": 52536,
      "componentType": 5126,
      "count": 262,
      "max": [
        1.0,
        1.0,
        1.0
      ],
      "min": [
        -1.0,
        -1.0,
        -1.0
      ],
      "type": "VEC3"
    },
    {
      "bufferView": 1,
      "byteOffset": 16464,
      "componentType": 5126,
      "count": 262,
      "max": [
        0.65625,
        1.0
      ],
      "min": [
        0.35139739513397217,
        0.010105649009346962
      ],
      "type": "VEC2"
    },
    {
      "bufferView": 0,
      "byteOffset": 21000,
      "componentType": 5125,
      "count": 672,
      "type": "SCALAR"
    },
    {
      "bufferView": 2,
      "byteOffset": 55680,
      "componentType": 5126,
      "count": 429,
      "max": [
        -2.121284246444702,
        0.56251460313797,
        0.012563824653625488
      ],
      "min": [
        -2.1962826251983643,
        0.25444868206977844,
        -0.10942772030830383
      ],
      "type": "VEC3"
    },
    {
      "bufferView": 2,
      "byteOffset": 60828,
      "componentType": 5126,
      "count": 429,
      "max": [
        0.9527445435523987,
        0.9981091022491455,
        0.9991517663002014
      ],
      "min": [
        -0.9527458548545837,
        -0.9988689422607422,
        -0.9991518259048462
      ],
      "type": "VEC3"
    },
    {
      "bufferView": 1,
      "byteOffset": 18560,
      "componentType": 5126,
      "count": 429,
      "max": [
        1.0000001192092896,
        1.0
      ],
      "min": [
        0.0,
        0.007647395133972168
      ],
      "type": "VEC2"
    },
    {
      "bufferView": 0,
      "byteOffset": 23688,
      "componentType": 5125,
      "count": 702,
      "type": "SCALAR"
    },
    {
      "bufferView": 2,
      "byteOffset": 65976,
      "componentType": 5126,
      "count": 203,
      "max": [
        1.0,
        1.0,
        1.0
      ],
      "min": [
        -1.0,
        -2.746206283569336,
        -1.0
      ],
      "type": "VEC3"
    },
    {
      "bufferView": 2,
      "byteOffset": 68412,
      "componentType": 5126,
      "count": 203,
      "max": [
        0.999917209148407,
        1.0,
        0.999917209148407
      ],
      "min": [
        -0.999917209148407,
        -1.0,
        -0.999917209148407
      ],
      "type": "VEC3"
    },
    {
      "bufferView": 1,
      "byteOffset": 21992,
      "componentType": 5126,
      "count": 203,
      "max": [
        0.65625,
        1.0
      ],
      "min": [
        0.34375,
        0.0
      ],
      "type": "VEC2"
    },
    {
      "bufferView": 0,
      "byteOffset": 26496,
      "componentType": 5125,
      "count": 864,
      "type": "SCALAR"
    },
    {
      "bufferView": 2,
      "byteOffset": 70848,
      "componentType": 5126,
      "count": 262,
      "max": [
        1.0,
        1.000000238418579,
        0.8932327628135681
      ],
      "min": [
        -1.0,
        -1.0,
        -1.0000004768371582
      ],
      "type": "VEC3"
    },
    {
      "bufferView": 2,
      "byteOffset": 73992,
      "componentType": 5126,
      "count": 262,
      "max": [
        1.0,
        1.0,
        1.0
      ],
      "min": [
        -1.0,
        -1.0,
        -1.0
      ],
      "type": "VEC3"
    },
    {
      "bufferView": 1,
      "byteOffset": 23616,
      "componentType": 5126,
      "count": 262,
      "max": [
        0.65625,
        1.0
      ],
      "min": [
        0.35139739513397217,
        0.010105649009346962
      ],
      "type": "VEC2"
    },
    {
      "bufferView": 0,
      "byteOffset": 29952,
      "componentType": 5125,
      "count": 672,
      "type": "SCALAR"
    },
    {
      "bufferView": 2,
      "byteOffset": 77136,
      "componentType": 5126,
      "count": 552,
      "max": [
        1.0,
        1.0,
        1.0
      ],
      "min": [
        -1.0,
        -1.0,
        -1.0
      ],
      "type": "VEC3"
    },
    {
      "bufferView": 2,
      "byteOffset": 83760,
      "componentType": 5126,
      "count": 552,
      "max": [
        0.9582090973854065,
        0.9908391833305359,
        0.9582090973854065
      ],
      "min": [
        -0.9582090973854065,
        -0.9908391833305359,
        -0.9582090973854065
      ],
      "type": "VEC3"
    },
    {
      "bufferView": 1,
      "byteOffset": 25712,
      "componentType": 5126,
      "count": 552,
      "max": [
        0.9999998807907104,
        1.0
      ],
      "min": [
        0.0,
        0.0
      ],
      "type": "VEC2"
    },
    {
      "bufferView": 0,
      "byteOffset": 32640,
      "componentType": 5125,
      "count": 792,
      "type": "SCALAR"
    },
    {
      "bufferView": 2,
      "byteOffset": 90384,
      "componentType": 5126,
      "count": 552,
      "max": [
        1.0,
        1.0,
        1.0
      ],
      "min": [
        -1.0,
        -1.0,
        -1.0
      ],
      "type": "VEC3"
    },
    {
      "bufferView": 2,
      "byteOffset": 97008,
      "componentType": 5126,
      "count": 552,
      "max": [
        0.9582090973854065,
        0.9908391833305359,
        0.9582090973854065
      ],
      "min": [
        -0.9582090973854065,
        -0.9908391833305359,
        -0.9582090973854065
      ],
      "type": "VEC3"
    },
    {
      "bufferView": 1,
      "byteOffset": 30128,
      "componentType": 5126,
      "count": 552,
      "max": [
        0.9999998807907104,
        1.0
      ],
      "min": [
        0.0,
        0.0
      ],
      "type": "VEC2"
    },
    {
      "bufferView": 0,
      "byteOffset": 35808,
      "componentType": 5125,
      "count": 792,
      "type": "SCALAR"
    },
    {
      "bufferView": 3,
      "componentType": 5126,
      "count": 1,
      "max": [
        0.0416666679084301
      ],
      "min": [
        0.0416666679084301
      ],
      "type": "SCALAR"
    },
    {
      "bufferView": 4,
      "componentType": 5126,
      "count": 1,
      "max": [
        -3.1414904594421387,
        -0.7475171089172363,
        -0.053383857011795044
      ],
      "min": [
        -3.1414904594421387,
        -0.7475171089172363,
        -0.053383857011795044
      ],
      "type": "VEC3"
    }
  ],
  "animations": [
    {
      "channels": [
        {
          "sampler": 0,
          "target": {
            "node": 16,
            "path": "translation"
          }
        }
      ],
      "name": "Take 001",
      "samplers": [
        {
          "input": 48,
          "interpolation": "LINEAR",
          "output": 49
        }
      ]
    }
  ],
  "asset": {
    "extras": {
      "author": "nova.karlsson (https://sketchfab.com/nova.karlsson)",
      "license": "CC-BY-4.0 (http://creativecommons.org/licenses/by/4.0/)",
      "source": "https://sketchfab.com/3d-models/robot-8437215d6453478595e29f2be4e7d9e3",
      "title": "Robot"
    },
    "generator": "Sketchfab-12.65.0",
    "version": "2.0"
  },
  "bufferViews": [
    {
      "buffer": 0,
      "byteLength": 38976,
      "name": "floatBufferViews",
      "target": 34963
    },
    {
      "buffer": 0,
      "byteLength": 34544,
      "byteOffset": 38976,
      "byteStride": 8,
      "name": "floatBufferViews",
      "target": 34962
    },
    {
      "buffer": 0,
      "byteLength": 103632,
      "byteOffset": 73520,
      "byteStride": 12,
      "name": "floatBufferViews",
      "target": 34962
    },
    {
      "buffer": 0,
      "byteLength": 4,
      "byteOffset": 177152,
      "name": "floatBufferViews"
    },
    {
      "buffer": 0,
      "byteLength": 12,
      "byteOffset": 177156,
      "byteStride": 12,
      "name": "floatBufferViews"
    }
  ],
  "buffers": [
    {
      "byteLength": 177168,
      "uri": "robot.bin"
    }
  ],
  "materials": [
    {
      "doubleSided": true,
      "name": "lambert1",
      "pbrMetallicRoughness": {
        "baseColorFactor": [
          0.5,
          0.5,
          0.5,
          1.0
        ],
        "metallicFactor": 0.0,
        "roughnessFactor": 0.6
      }
    }
  ],
  "meshes": [
    {
      "name": "pCube1_lambert1_0",
      "primitives": [
        {
          "attributes": {
            "NORMAL": 1,
            "POSITION": 0,
            "TEXCOORD_0": 2
          },
          "indices": 3,
          "material": 0,
          "mode": 4
        }
      ]
    },
    {
      "name": "pCylinder1_lambert1_0",
      "primitives": [
        {
          "attributes": {
            "NORMAL": 5,
            "POSITION": 4,
            "TEXCOORD_0": 6
          },
          "indices": 7,
          "material": 0,
          "mode": 4
        }
      ]
    },
    {
      "name": "pCylinder3_lambert1_0",
      "primitives": [
        {
          "attributes": {
            "NORMAL": 9,
            "POSITION": 8,
            "TEXCOORD_0": 10
          },
          "indices": 11,
          "material": 0,
          "mode": 4
        }
      ]
    },
    {
      "name": "pCube2_lambert1_0",
      "primitives": [
        {
          "attributes": {
            "NORMAL": 13,
            "POSITION": 12,
            "TEXCOORD_0": 14
          },
          "indices": 15,
          "material": 0,
          "mode": 4
        }
      ]
    },
    {
      "name": "pSphere2_lambert1_0",
      "primitives": [
        {
          "attributes": {
            "NORMAL": 17,
            "POSITION": 16,
            "TEXCOORD_0": 18
          },
          "indices": 19,
          "material": 0,
          "mode": 4
        }
      ]
    },
    {
      "name": "pSphere3_lambert1_0",
      "primitives": [
        {
          "attributes": {
            "NORMAL": 21,
            "POSITION": 20,
            "TEXCOORD_0": 22
          },
          "indices": 23,
          "material": 0,
          "mode": 4
        }
      ]
    },
    {
      "name": "pCylinder7_lambert1_0",
      "primitives": [
        {
          "attributes": {
            "NORMAL": 25,
            "POSITION": 24,
            "TEXCOORD_0": 26
          },
          "indices": 27,
          "material": 0,
          "mode": 4
        }
      ]
    },
    {
      "name": "pSphere4_lambert1_0",
      "primitives": [
        {
          "attributes": {
            "NORMAL": 29,
            "POSITION": 28,
            "TEXCOORD_0": 30
          },
          "indices": 31,
          "material": 0,
          "mode": 4
        }
      ]
    },
    {
      "name": "pCylinder8_lambert1_0",
      "primitives": [
        {
          "attributes": {
            "NORMAL": 33,
            "POSITION": 32,
            "TEXCOORD_0": 34
          },
          "indices": 35,
          "material": 0,
          "mode": 4
        }
      ]
    },
    {
      "name": "pCylinder9_lambert1_0",
      "primitives": [
        {
          "attributes": {
            "NORMAL": 37,
            "POSITION": 36,
            "TEXCOORD_0": 38
          },
          "indices": 39,
          "material": 0,
          "mode": 4
        }
      ]
    },
    {
      "name": "pSphere5_lambert1_0",
      "primitives": [
        {
          "attributes": {
            "NORMAL": 41,
            "POSITION": 40,
            "TEXCOORD_0": 42
          },
          "indices": 43,
          "material": 0,
          "mode": 4
        }
      ]
    },
    {
      "name": "pSphere6_lambert1_0",
      "primitives": [
        {
          "attributes": {
            "NORMAL": 45,
            "POSITION": 44,
            "TEXCOORD_0": 46
          },
          "indices": 47,
          "material": 0,
          "mode": 4
        }
      ]
    }
  ],
  "nodes": [
    {
      "children": [
        1
      ],
      "matrix": [
        1.0,
        0.0,
        0.0,
        0.0,
        0.0,
        2.220446049250313e-16,
        -1.0,
        0.0,
        0.0,
        1.0,
        2.220446049250313e-16,
        0.0,
        0.0,
        0.0,
        0.0,
        1.0
      ],
      "name": "Sketchfab_model"
    },
    {
      "children": [
        2
      ],
      "matrix": [
        1.0,
        0.0,
        0.0,
        0.0,
        0.0,
        0.0,
        1.0,
        0.0,
        0.0,
        -1.0,
        0.0,
        0.0,
        0.0,
        0.0,
        0.0,
        1.0
      ],
      "name": "17f0180d2b2042099719ad74f55fb455.fbx"
    },
    {
      "children": [
        3
      ],
      "name": "Object_2"
    },
    {
      "children": [
        4,
        6,
        8,
        10,
        12,
        14,
        16,
        18,
        20,
        22,
        24,
        26
      ],
      "name": "RootNode"
    },
    {
      "children": [
        5
      ],
      "name": "pCube1",
      "scale": [
        1.0,
        0.5606973171234131,
        0.7433340549468994
      ],
      "translation": [
        -2.16294002532959,
        0.0,
        0.0
      ]
    },
    {
      "mesh": 0,
      "name": "pCube1_lambert1_0"
    },
    {
      "children": [
        7
      ],
      "name": "pCylinder1",
      "rotation": [
        0.0,
        0.0,
        -0.7071068286895752,
        0.7071068286895752
      ],
      "scale": [
        0.1638919711112976,
        0.03131062909960747,
        0.1638919711112976
      ],
      "translation": [
        -1.6629400253295898,
        0.0,
        0.0
      ]
    },
    {
      "mesh": 1,
      "name": "pCylinder1_lambert1_0"
    },
    {
      "children": [
        9
      ],
      "name": "pCylinder3",
      "rotation": [
        -0.7071068286895752,
        0.7071068286895752,
        4.329780963457767e-17,
        -4.329780963457767e-17
      ],
      "scale": [
        0.1638919711112976,
        0.03131062909960747,
        0.1638919711112976
      ],
      "translation": [
        -2.66294002532959,
        0.0,
        0.0
      ]
    },
    {
      "mesh": 2,
      "name": "pCylinder3_lambert1_0"
    },
    {
      "children": [
        11
      ],
      "name": "pCube2",
      "scale": [
        1.0,
        0.8930830359458923,
        0.7325571775436401
      ],
      "translation": [
        -2.16294002532959,
        -0.7166674137115479,
        -5.551115123125783e-16
      ]
    },
    {
      "mesh": 3,
      "name": "pCube2_lambert1_0"
    },
    {
      "children": [
        13
      ],
      "name": "pSphere2",
      "scale": [
        0.11969030648469925,
        0.11969030648469925,
        0.11969030648469925
      ],
      "translation": [
        -1.6067335605621338,
        -0.5207535028457642,
        -5.551115123125783e-16
      ]
    },
    {
      "mesh": 4,
      "name": "pSphere2_lambert1_0"
    },
    {
      "children": [
        15
      ],
      "name": "pSphere3",
      "scale": [
        0.11969030648469925,
        0.11969030648469925,
        0.11969030648469925
      ],
      "translation": [
        -2.705810546875,
        -0.5207535028457642,
        -5.551115123125783e-16
      ]
    },
    {
      "mesh": 5,
      "name": "pSphere3_lambert1_0"
    },
    {
      "children": [
        17
      ],
      "name": "pCylinder7",
      "rotation": [
        0.3535533845424652,
        -0.6123724579811096,
        0.3535533845424652,
        0.6123724579811096
      ],
      "scale": [
        0.1038212701678276,
        0.1038212701678276,
        0.1038212701678276
      ],
      "translation": [
        -3.1414904594421387,
        -0.7947521805763245,
        -5.551115123125783e-16
      ]
    },
    {
      "mesh": 6,
      "name": "pCylinder7_lambert1_0"
    },
    {
      "children": [
        19
      ],
      "name": "pSphere4"
    },
    {
      "mesh": 7,
      "name": "pSphere4_lambert1_0"
    },
    {
      "children": [
        21
      ],
      "name": "pCylinder8",
      "scale": [
        0.24543797969818115,
        0.08300665020942688,
        0.24543797969818115
      ],
      "translation": [
        -2.16294002532959,
        -1.2357414960861206,
        -5.551115123125783e-16
      ]
    },
    {
      "mesh": 8,
      "name": "pCylinder8_lambert1_0"
    },
    {
      "children": [
        23
      ],
      "name": "pCylinder9",
      "rotation": [
        0.1830127090215683,
        0.6830127239227295,
        -0.1830127090215683,
        0.6830127239227295
      ],
      "scale": [
        0.1038212701678276,
        0.1038212701678276,
        0.1038212701678276
      ],
      "translation": [
        -1.1800601482391357,
        -0.8107735514640808,
        -5.551115123125783e-16
      ]
    },
    {
      "mesh": 9,
      "name": "pCylinder9_lambert1_0"
    },
    {
      "children": [
        25
      ],
      "name": "pSphere5",
      "scale": [
        0.07939736545085907,
        0.07939736545085907,
        0.07939736545085907
      ],
      "translation": [
        -1.2639145851135254,
        -0.7336192727088928,
        -5.551115123125783e-16
      ]
    },
    {
      "mesh": 10,
      "name": "pSphere5_lambert1_0"
    },
    {
      "children": [
        27
      ],
      "name": "pSphere6",
      "scale": [
        0.07939736545085907,
        0.07939736545085907,
        0.07939736545085907
      ],
      "translation": [
        -3.035844087600708,
        -0.7336192727088928,
        -5.551115123125783e-16
      ]
    },
    {
      "mesh": 11,
      "name": "pSphere6_lambert1_0"
    }
  ],
  "scene": 0,
  "scenes": [
    {
      "name": "Sketchfab_Scene",
      "nodes": [
        0
      ]
    }
  ]
}
